# xmcd CD database file
#
# Track frame offsets:
#	150
#	16947
#	38492
#	55007
#	72890
#	92035
#	112040
#	130860
#	147940
#	161757
#	184127
#	204367
#	224037
#	241160
#	259237
#	279305
#
# Disc length: 3934 seconds
#
# Revision: 0
# Processed by: cddbd v1.5PL3 Copyright (c) Steve Scherf et al.
# Submitted via: CDex 1.51
#
DISCID=e60f5c10
DTITLE=李　成愛 - ニュー・ベストナウ
DYEAR=1988
DGENRE=Vocal
TTITLE0=釜山港へ帰れ
TTITLE1=カスマプゲ（胸が切ない）
TTITLE2=黄色いシャツ
TTITLE3=愛してます（サランへ）
TTITLE4=大田ブルース
TTITLE5=誰が泣く
TTITLE6=ミオ　ミオ　ミオ（憎い憎い憎い）
TTITLE7=離別（イビョル）
TTITLE8=二度と恋などしたくない
TTITLE9=どうしたらいいの
TTITLE10=雨降る湖南線
TTITLE11=淋しき旅人
TTITLE12=ミアリ峠
TTITLE13=哀愁夜曲
TTITLE14=涙の釜山港
TTITLE15=他郷暮し
EXTD=YEAR: 1988
EXTT0=
EXTT1=
EXTT2=
EXTT3=
EXTT4=
EXTT5=
EXTT6=
EXTT7=
EXTT8=
EXTT9=
EXTT10=
EXTT11=
EXTT12=
EXTT13=
EXTT14=
EXTT15=
PLAYORDER=
